/* XPM */
static char *chest_right[] = {
/* columns rows colors chars-per-pixel */
"4 8 3 1 ",
"  c black",
". c red",
"X c yellow",
/* pixels */
".XX ",
"XX.X",
".XXX",
"X.X.",
"....",
" . .",
" ...",
"..X "
};
