/* XPM */
static char * floor_middle_xpm[] = {
"4 8 4 1",
" 	c None",
".	c #000000",
"+	c #FF0000",
"@	c #00FF00",
".+@+",
"+@+@",
"@+@+",
"+@@@",
"@+@+",
"+@+@",
"@+@+",
"+@+@"};
