/* XPM */
static char *panel[] = {
/* columns rows colors chars-per-pixel */
"160 32 3 1 ",
"  c black",
". c red",
"X c yellow",
/* pixels */
"  XX                                                                                                                                                        XX  ",
" XXXX                          XXXX                          XXXXXXXXXX                        XXXXXX                             XXXXXX           XXXXX   XXXX ",
"X XX X XX    XXXXXXXXX XXXXXXXXXXXXXXXXXXXXXXX   XXXXXXXXXXXXXXXXXXXXXXXXXXXX XXXXXXXXXXX XXXXXXXXXXXXXXXX XXXXXXXXXXX XXXXXXXXXXXXXXXXXXXXX  XXXXXXXXXXX X XX X",
"XX  XX XXXXXXXXXXXXXXXX XXXXXXXXXXXXXXXXXXXXX XXXXXXXXXXXXXXXXXXXXXXXXXXXXXXXX XXXXXXXXX  XXXXXXXXXXXXXXXXX XXXXXXXXXXX  XXXXXXXXXXXXXXXXXX  XXXXXXXXXXX  XX  XX",
" XXXX  X XXXXXXXXXXXXXX  XXXXXXXXXXXXXXXXXXXXXXXXXXXXXXXXXXXXXXXXXXXXXXXXXXXXXXXXXXXXXXX XXXXX XXXXXXXXXXXXXXXXXXX XXXXXXXXXXXXXXXXXXXXXXX XXXXXXXXXXXXXX  XXXXX",
"XX XXX XXXXXXXXXXXXXXXXXXXXXXXXXXXXXXXXXXXXXXXXXXXXXXXXXXXXXXXXXXXXXXXXX XXXXXXXXXXXXXXXXXX XXXXXXXXXXXXXXXXXX   XXXXX XXXXXX XXXXXXXXXXXXXXX XXXXXXXXXX  XX XXX",
" XXXXX X XXXXXXXXXX                                         XXXXXXXXXXXXX X                                     XX X         XXX XX          XXXXXXXXXX X  XXXXX",
"X XXX  XXXXXXXXXXX XXXXXXXXXXXXXXXXXXXXXXXXXXXXXXXXXXXXXXXXX XXXXXXXXXXXXX                                                    XXX             XXXXXXXXXXX X XXXX",
" XXXXX  XXXXXXXXXX XX..X..XXX..X..XXX..X..XXX..X..XXX..X..XX XXXXXXXXXXXXX                                                    XXXX            XXXXXXXXXX   XXXXX",
"XX XXX X XXXXXXXXX X.......X.......X.......X.......X.......X XXXXXXXXXXXX                                                      XX              XXXXXXXXXX XX XXX",
" XXXX  XXXXXXXXXXX X.......X.......X.......X.......X.......X XXXXXXXXXXXX                                                      XX              XXXXXXXX X  XXXXX",
"XXXXXX X XXXXXXXXX X.......X.......X.......X.......X.......X XXXXXXXXXXXX                                                      XX              XXXXXXXXXX XXXXXX",
" XXXX  XXXXXXXXXXX XX.....XXX.....XXX.....XXX.....XXX.....XX XXXXXXXXXXXX                                                      XX              XXXXXXXXX   XXXXX",
"X XXXX X XXXXXXXXX XXX...XXXXX...XXXXX...XXXXX...XXXXX...XXX XXXXXXXXXXXX                                                      XX              XXXXXXXXXX X XXXX",
"XXXXXX XXXXXXXXXXX XXXX.XXXXXXX.XXXXXXX.XXXXXXX.XXXXXXX.XXXX XXXXXXXXXXXX                                                      XX              XXXXXXXXXX XXXXXX",
" XXXXX  XXXXXXXXXX XXXXXXXXXXXXXXXXXXXXXXXXXXXXXXXXXXXXXXXXX XXXXXXXXXXXXX                                                    XXXX            XXXXXXXXX X  XXXXX",
"XX XX  X XXXXXXXXX XX..X..XXX..X..XXX..X..XXX..X..XXX..X..XX XXXXXXXXXXXXX                                                    XXXX             XXXXXXXXXX XX XXX",
" XXXXX XXXXXXXXXXX X.......X.......X.......X.......X.......X XXXXXXXXXXXX X                                      X           XXXXXX          XX XXXXXXXXX  XXXXX",
"X XXXX X XXXXXXXXX X.......X.......X.......X.......X.......X XXXXXXXXXXXX XXXXXXXXXXXXXXXXXXXXXX XXXXXXXXXXXXXX   X XXXXXXXX  XXXX XXXXXXXXXXXXXXXXXXXXX  X XXXX",
" XXXXX XXXXXXXXXXX X.......X.......X.......X.......X.......X XXXXXXXXXXX XXXXXXXXXXXX XXX XXXXX XXXXXXXXXXXXXXXX XXXXXXXXXXXXXXXXXXXXX    XXXXXXXXXXXXXXX  XXXXX",
"XXXXX  XX XXXXXXXX XX.....XXX.....XXX.....XXX.....XXX.....XX XXXXXXXXXXXXXXXXXXXXXXXX XX XXXXXXXXXXXXXXXXXXXXXXXXXXXX X  X XXXXXXXXXX  XX  XXXXXXXXXXXXXX XXXXXX",
" X XXX X XXXXXXXXX XXX...XXXXX...XXXXX...XXXXX...XXXXX...XXX XXXXXXXXXXXXXXXXXXXXXXXX X XXX  XX XX XX   XXXXXXXXXXXXX X  X XXXXXXXXXX  XX  XXXXXXXXXXXX X XX XXX",
"XXXXXX XXXXXXXXXXX XXXX.XXXXXXX.XXXXXXX.XXXXXXX.XXXXXXX.XXXX XXXXXXXXXXXXXXXXXXXXXXXX  XXX XX X XX X XXXXXXXXXXXXXXXX      XXXXXXXXXXXXX  XXXXXXXXXXXXXXX  XXXXX",
"X XXX   XXXXXXXXXX XXXXXXXXXXXXXXXXXXXXXXXXXXXXXXXXXXXXXXXXX XXXXXXXXXXXXXXXXXXXXXXXX X XX   XXX   XX  XXXXXXXXXXXXXX      XXXXXXXXXXXX  XXXXXXXXXXXXXXX  X XXXX",
" XXXXX XX XXXXXXXXX                                         XXXXXXXXXXXXXXXXXXXXXXXXX XX X XXXXXXX XXXX XXXXXXXXXXXXX      XXXXXXXXXXXXXXXXXXXXXXXXXXXXXX XXXXXX",
"XXXXXX XXXXXXXXXXXXXXXXXXXXXXXXXXXXXXXXXXXXXXXXXXXXXXXXXXXXXXXXXXXXXXXXXXXXXXXXXXXXXX XXX X   XXXX X   XXXXXXXXXXXXXX      XXXXXXXXXXXX  XXXXXXXXXXXXXX X  X XXX",
" XXXX  X XXXXXXXXXXXXXXXXXXXXXXXXXXXXXXXXXXXXXXXXXXXXXXXXXXXXXXXXXXXXXXXXXXXXXXXXXXXXXXXXXXXXXX   XXXXXXXXXXXXXXXXXXXXXXXXXXXXXXXXXXXXX  XXXXXXXXXXXXXXXX X XXXX",
"X XXXX XXXXXXXXXXXXX XXXXXXXXXXXXXXXXXXXXXXXXXXXXXXXXXXXXXXXXXXXXXXXXX XXXXXXXXXXXXXXXXXXXXXXXXXXXXXXXXXXXXXXXXXXXXXXXXXXXXXXXXXXXXXXXXXXXXXXXXXXXXXXX XX XXXXXX",
" XXXX  X XXXXXXXXXXXX XXXXXXXXXXXXXX  XXXXXXXXXXXXXXXXXXXXXXXXXXXXXXX XXXXXXXXXXXXX  XXXXXXXXXXXXXX XXXXXXXXXXXXXXXXXXXXXXXXXXXXXXXXXX XXXXXXXXXXXXXXXX X X XXXX",
"XX XXX      XXXXXXXXX XXXXXXXXXXXXXXXX  XXXXXXXXXXXXXXXXXXXXXXXXXXXX  XXXXXXXXXXXXXX  XXXXXXXXXXXXXX XXXXXX XXXXXXXXXXXXXXXXXXXXXXXXX XXXXXXXXXXXXXXXX X  XX XXX",
" XXXX                     X                       XXXXXX                       XX                                   XXXXXXXXX            XXXXXXXXX         XXXX ",
"  XX                                                                                                                                                        XX  "
};
